<svg width="40" height="40" viewBox="0 0 40 40" fill="none" xmlns="http://www.w3.org/2000/svg">
<g clip-path="url(#clip0_20_58)">
<path d="M33.3333 40H6.66667C3 40 0 37 0 33.3333V6.66667C0 3 3 0 6.66667 0H33.3333C37 0 40 3 40 6.66667V33.3333C40 37 37 40 33.3333 40ZM6.66667 3.33333C4.83333 3.33333 3.33333 4.83333 3.33333 6.66667V33.3333C3.33333 35.1667 4.83333 36.6667 6.66667 36.6667H33.3333C35.1667 36.6667 36.6667 35.1667 36.6667 33.3333V6.66667C36.6667 4.83333 35.1667 3.33333 33.3333 3.33333H6.66667Z" fill="#5378F4"/>
<path d="M13.3333 40C12.3333 40 11.6666 39.3333 11.6666 38.3333V1.66667C11.6666 0.666667 12.3333 0 13.3333 0C14.3333 0 15 0.666667 15 1.66667V38.3333C15 39.3333 14.3333 40 13.3333 40Z" fill="#5378F4"/>
<path d="M23.3333 21.6667C22.8333 21.6667 22.5 21.5 22.1666 21.1667C21.5 20.5 21.5 19.5 22.1666 18.8333L27.1666 13.8333C27.8333 13.1667 28.8333 13.1667 29.5 13.8333C30.1666 14.5 30.1666 15.5 29.5 16.1667L24.5 21.1667C24.1666 21.5 23.8333 21.6667 23.3333 21.6667Z" fill="#5378F4"/>
<path d="M28.3333 26.6667C27.8333 26.6667 27.5 26.5 27.1666 26.1667L22.1666 21.1667C21.5 20.5 21.5 19.5 22.1666 18.8333C22.8333 18.1667 23.8333 18.1667 24.5 18.8333L29.5 23.8333C30.1666 24.5 30.1666 25.5 29.5 26.1667C29.1666 26.5 28.8333 26.6667 28.3333 26.6667Z" fill="#5378F4"/>
</g>
<defs>
<clipPath id="clip0_20_58">
<rect width="40" height="40" fill="white"/>
</clipPath>
</defs>
</svg>
